# xmcd
#
# Track frame offsets: 
#        150
#        11861
#        24998
#        40727
#        52958
#        67668
#        83874
#        97055
#        115280
#        126374
#
# Disc length: 1849 seconds
#
# Revision: 0
# Processed by: cddbd v1.5.2PL0 Copyright (c) Steve Scherf et al.
# Submitted via: ExactAudioCopy v0.95b4
#
DISCID=7b07370a
DTITLE=Various Artist - Best Of Country, CD 3
DYEAR=2005
DGENRE=Country
TTITLE0=Donna Fargo - The Happiest Girl In The Whole U.S.A.
TTITLE1=Jack Greene - Statue Of A Fool
TTITLE2=Exile - Kiss You All Over
TTITLE3=Moe Bandy - Cheatin' Situation
TTITLE4=T.G. Sheppard - Motels And Memories
TTITLE5=B.J. Thomas - Another Somebody Done Somebody Wrong Song
TTITLE6=Lynn Anderson - Rose Garden
TTITLE7=Freddy Fender - Secret Love
TTITLE8=Jack Greene - There Goes My Everything
TTITLE9=Johnny Paycheck - Take This Job And Shove It
EXTD=
EXTT0=
EXTT1=
EXTT2=
EXTT3=
EXTT4=
EXTT5=
EXTT6=
EXTT7=
EXTT8=
EXTT9=
PLAYORDER=
